<?xml version="1.0" standalone="no"?>
<!DOCTYPE svg PUBLIC "-//W3C//DTD SVG 20010904//EN"
 "http://www.w3.org/TR/2001/REC-SVG-20010904/DTD/svg10.dtd">
<svg version="1.0" xmlns="http://www.w3.org/2000/svg"
 width="1440.000000pt" height="1078.000000pt" viewBox="0 0 1440.000000 1078.000000"
 preserveAspectRatio="xMidYMid meet">

<g transform="translate(0.000000,1078.000000) scale(0.100000,-0.100000)"
fill="#000000" stroke="none">
<path d="M6450 10751 c0 -19 8 -34 23 -44 13 -8 31 -34 42 -56 11 -26 23 -40
32 -37 17 7 17 -18 -1 -33 -8 -7 -17 -22 -20 -35 -5 -20 -14 -25 -58 -31 -29
-4 -66 -18 -83 -30 -16 -12 -51 -28 -77 -36 -27 -7 -48 -17 -48 -21 0 -4 -21
-18 -47 -30 -53 -24 -64 -35 -60 -58 2 -11 13 -14 42 -11 22 1 42 7 45 12 9
14 49 -2 55 -22 4 -10 11 -19 16 -19 5 0 9 -9 9 -20 0 -17 -7 -20 -40 -20 -22
0 -40 -4 -40 -10 0 -6 -9 -6 -25 0 -32 12 -32 3 0 -41 26 -34 26 -34 5 -48
-11 -7 -20 -21 -20 -31 0 -20 -47 -34 -53 -16 -3 6 -8 3 -12 -7 -8 -20 12 -50
28 -40 6 3 7 1 3 -5 -4 -7 -2 -12 3 -12 6 0 11 -9 11 -20 0 -11 7 -36 15 -56
11 -27 12 -40 3 -59 -8 -19 -8 -31 0 -48 17 -34 12 -76 -9 -82 -29 -10 -56 11
-62 49 -7 41 -46 104 -69 112 -10 3 -18 12 -18 20 0 18 -34 18 -49 0 -6 -7 -9
-20 -6 -28 4 -10 -4 -19 -25 -28 -22 -9 -29 -17 -25 -30 6 -19 -11 -71 -26
-81 -16 -10 -1 -33 31 -47 33 -15 43 -55 13 -50 -11 2 -19 -7 -25 -32 -30
-115 -27 -110 -71 -129 -56 -24 -89 -93 -52 -107 19 -8 20 -34 1 -34 -17 0
-53 -53 -40 -57 6 -2 8 -32 6 -69 -4 -57 -1 -70 19 -97 13 -18 24 -48 25 -69
1 -20 9 -51 18 -69 9 -18 16 -42 16 -54 0 -14 8 -25 19 -28 14 -3 18 -11 14
-25 -4 -17 -1 -20 16 -15 16 4 21 1 21 -13 1 -25 24 -56 40 -52 7 2 22 -21 34
-54 16 -44 26 -58 41 -58 18 -1 19 -1 3 -11 -17 -9 -17 -11 -1 -36 17 -25 16
-25 -4 -19 -27 9 -42 -13 -20 -29 10 -7 17 -18 17 -25 0 -7 8 -10 18 -8 10 3
27 -1 38 -10 18 -14 17 -14 -8 -8 -21 5 -28 3 -28 -9 0 -8 5 -15 10 -15 6 0
10 -7 10 -15 0 -8 4 -15 9 -15 5 0 14 -14 20 -32 10 -29 12 -30 29 -15 34 31
56 14 63 -48 4 -28 2 -30 -36 -36 -40 -5 -36 -12 18 -24 20 -4 27 -10 23 -20
-4 -10 1 -15 14 -15 14 0 20 -7 20 -24 0 -13 7 -26 15 -30 8 -3 15 -12 15 -21
0 -8 2 -15 5 -15 12 0 55 33 51 39 -2 3 6 13 18 22 20 16 23 15 46 -3 l25 -21
-24 8 c-17 5 -22 4 -19 -6 6 -18 53 -41 101 -50 35 -6 39 -4 53 22 8 16 19 29
25 29 6 0 7 5 4 10 -4 6 -11 8 -16 5 -5 -4 -9 3 -9 14 0 12 5 21 11 21 6 0 9
7 5 15 -3 8 -1 15 4 15 6 0 10 -12 11 -27 l1 -28 11 29 c13 31 10 31 162 11
45 -6 67 -3 161 26 20 6 40 6 55 0 18 -8 20 -10 6 -10 -10 -1 -15 -6 -12 -12
4 -6 12 -8 19 -6 7 3 23 -1 37 -9 34 -19 62 -17 93 7 14 11 30 18 35 15 5 -3
21 9 36 26 23 28 35 33 74 34 25 1 49 -3 52 -8 4 -7 14 -2 25 11 10 11 30 21
44 21 23 0 27 6 38 53 6 29 12 83 12 119 0 60 3 70 27 92 15 14 41 28 57 32
26 6 34 2 63 -32 38 -45 67 -102 83 -161 7 -28 21 -49 43 -65 31 -22 38 -23
217 -20 141 2 190 6 207 18 24 15 22 44 -3 44 -8 0 -14 5 -14 10 0 6 10 8 24
4 18 -4 25 -1 28 14 4 15 18 21 57 27 37 5 51 11 47 20 -2 7 2 16 10 19 8 3
14 11 14 18 0 8 14 19 30 25 18 7 30 18 30 29 0 10 14 33 31 50 27 28 31 37
25 67 -9 48 -33 65 -101 73 -53 6 -58 5 -48 -8 16 -18 7 -28 -25 -28 -24 0
-24 1 -9 18 10 10 14 22 10 25 -3 4 0 7 7 7 7 0 10 3 7 6 -11 11 45 100 75
120 32 21 39 68 12 78 -9 3 -66 9 -128 12 -110 5 -162 -3 -178 -28 -5 -9 -11
-8 -22 1 -12 10 -16 9 -25 -7 -10 -19 -36 -27 -106 -37 -67 -9 -129 -26 -136
-36 -4 -7 -11 -9 -17 -5 -6 3 -12 1 -14 -5 -2 -6 -28 -14 -57 -17 -41 -4 -56
-10 -68 -28 -8 -13 -31 -28 -52 -34 -49 -14 -141 -13 -141 1 0 8 -5 7 -15 -1
-12 -10 -19 -10 -27 -2 -7 7 -43 12 -86 12 -58 0 -78 -4 -87 -16 -23 -32 -329
-30 -330 1 -1 6 -4 28 -9 49 -5 26 -4 41 4 46 13 8 3 80 -11 80 -5 0 -9 8 -9
18 0 9 -7 35 -15 57 -19 54 -19 73 2 71 19 -1 32 39 40 122 3 36 1 58 -9 69
-10 13 -10 17 0 20 16 6 16 43 -1 43 -20 0 -60 124 -52 162 9 49 27 91 47 112
22 24 82 46 124 46 18 0 51 11 73 24 34 19 50 22 82 16 37 -7 41 -5 55 21 16
32 30 35 116 19 54 -10 56 -10 108 25 28 19 55 35 59 36 3 0 22 2 41 5 42 5
124 11 200 14 30 1 61 7 68 13 19 15 99 0 122 -23 11 -11 27 -20 35 -20 22 0
34 -30 23 -56 -8 -16 -7 -26 3 -37 12 -13 16 -13 32 1 9 8 20 12 24 8 4 -3
-10 -21 -29 -39 -58 -51 -66 -57 -81 -57 -7 0 -36 -11 -63 -25 -27 -14 -69
-33 -94 -42 -58 -20 -80 -40 -80 -73 0 -32 43 -90 85 -116 44 -27 52 -29 35
-8 -9 10 -22 31 -30 47 -7 15 -18 27 -24 27 -16 1 -48 49 -40 61 7 12 66 39
84 39 6 0 8 -4 5 -10 -3 -5 -1 -10 5 -10 6 0 9 -3 6 -8 -2 -4 -1 -23 4 -42 l8
-35 1 40 c1 30 8 44 27 58 14 10 31 16 39 13 7 -2 19 2 25 10 7 8 21 14 31 14
11 0 19 7 19 15 0 8 -5 15 -12 15 -19 0 3 16 43 33 35 14 36 14 32 -4 -3 -10
-14 -19 -24 -19 -11 0 -19 -4 -19 -9 0 -5 9 -7 20 -4 12 3 29 -2 42 -13 21
-19 21 -19 16 4 -4 12 -2 22 3 22 5 0 9 -6 9 -13 0 -7 14 -25 32 -41 30 -26
33 -27 45 -10 7 10 16 14 20 9 5 -4 2 -10 -4 -12 -19 -7 -16 -23 5 -23 9 -1
31 -12 47 -25 l30 -25 -25 0 c-29 0 -45 9 -53 30 -5 13 -6 13 -6 -1 -1 -17 23
-43 49 -52 9 -3 5 -6 -10 -6 -20 -1 -22 -3 -10 -11 8 -5 25 -10 37 -10 20 0
22 -4 17 -30 -5 -24 -3 -30 10 -30 11 0 16 -6 14 -17 -2 -10 6 -28 18 -39 13
-12 21 -24 18 -27 -4 -3 57 -16 86 -18 3 -1 11 -6 19 -12 7 -6 29 -17 47 -23
31 -11 34 -10 34 7 0 11 6 19 14 19 17 0 26 -44 16 -80 -4 -14 -4 -50 1 -79 9
-57 19 -79 19 -42 0 12 4 20 9 16 12 -7 43 24 35 36 -3 5 -10 7 -15 4 -5 -4
-9 -1 -9 4 0 6 5 11 11 11 5 0 7 5 4 10 -3 6 1 13 9 16 9 3 16 10 16 16 0 15
29 40 39 34 16 -10 23 28 22 133 -1 100 -1 103 20 98 30 -8 48 1 42 24 -3 11
1 21 10 25 12 4 14 11 6 31 -12 31 -12 31 7 35 21 4 27 67 12 131 -10 39 -16
47 -35 47 -18 0 -23 -5 -23 -27 0 -27 -33 -93 -46 -93 -7 0 -1 38 17 102 9 34
13 38 43 38 28 0 34 4 38 25 3 13 1 22 -3 19 -5 -3 -9 -1 -9 4 0 6 -7 12 -14
15 -11 4 -13 1 -9 -11 6 -15 5 -15 -11 -3 -20 17 -17 56 5 55 11 -1 15 9 16
32 1 27 -3 34 -18 34 -12 0 -16 5 -13 15 4 10 0 15 -10 15 -15 0 -15 3 -2 34
8 19 12 37 8 40 -3 3 -1 6 4 6 6 0 21 14 33 31 l23 31 -23 -6 c-13 -3 -18 -3
-11 0 15 7 16 84 1 84 -8 0 -8 5 1 15 8 10 9 15 2 15 -6 0 -9 6 -6 14 3 9 -9
20 -35 32 -22 11 -43 28 -47 39 -11 32 -11 65 1 65 5 0 3 5 -5 10 -8 5 -10 10
-3 10 6 0 -1 14 -15 30 -15 17 -33 30 -40 30 -11 0 -12 7 -7 28 11 41 7 105
-7 114 -7 5 -26 7 -41 5 -21 -3 -26 0 -22 10 3 8 -2 22 -11 30 -13 13 -13 17
-2 24 7 5 -434 9 -979 9 l-993 0 0 -29z m-110 -315 c0 -3 -4 -8 -10 -11 -5 -3
-10 -1 -10 4 0 6 5 11 10 11 6 0 10 -2 10 -4z m2220 -77 c0 -11 -4 -18 -10
-14 -5 3 -7 12 -3 20 7 21 13 19 13 -6z m41 -162 c-13 -13 -26 -3 -16 12 3 6
11 8 17 5 6 -4 6 -10 -1 -17z m-666 -246 c3 -5 1 -12 -5 -16 -5 -3 -10 1 -10
9 0 18 6 21 15 7z m695 -260 c0 -40 -14 -46 -35 -15 -14 22 -15 28 -4 35 26
16 39 9 39 -20z m-2331 -121 c57 -25 60 -45 12 -85 -24 -21 -35 -25 -44 -16
-6 6 -19 11 -28 11 -41 0 -49 59 -13 94 19 20 16 20 73 -4z m-196 -897 c9 -9
-22 -43 -40 -43 -7 0 -13 7 -13 15 0 8 7 15 15 15 8 0 15 5 15 10 0 11 13 13
23 3z m21 -109 c4 -10 1 -14 -6 -12 -15 5 -23 28 -10 28 5 0 13 -7 16 -16z
m393 -196 c-3 -8 -6 -5 -6 6 -1 11 2 17 5 13 3 -3 4 -12 1 -19z m-200 -10 c-3
-8 -6 -5 -6 6 -1 11 2 17 5 13 3 -3 4 -12 1 -19z m151 -65 c-10 -2 -26 -2 -35
0 -10 3 -2 5 17 5 19 0 27 -2 18 -5z"/>
<path d="M569 10763 c-1 -5 0 -18 0 -30 1 -11 -2 -24 -7 -27 -5 -3 -7 -17 -5
-31 3 -13 9 -22 14 -19 5 3 9 1 9 -5 0 -5 -4 -11 -10 -13 -5 -1 -13 -60 -16
-130 -4 -71 -11 -128 -16 -128 -4 0 -8 -18 -8 -40 0 -29 4 -40 15 -40 22 0 19
-7 -17 -40 -27 -25 -30 -31 -18 -39 12 -9 11 -14 -7 -40 -16 -21 -19 -31 -10
-34 9 -4 9 -6 0 -6 -16 -1 -17 -43 -2 -58 16 -16 -12 -43 -46 -43 -36 0 -117
20 -134 34 -9 7 -70 11 -162 11 l-149 1 0 -447 0 -446 61 -7 c102 -10 99 -11
99 33 0 40 0 40 -42 44 l-43 4 43 1 c23 1 42 7 42 12 0 6 18 10 40 10 38 0 40
2 40 30 0 27 3 30 33 29 17 0 55 -4 82 -8 l50 -7 -3 38 c-4 36 0 43 77 119 45
44 81 84 81 89 0 5 10 24 23 44 18 28 28 35 55 36 25 0 32 4 32 19 0 11 -6 21
-12 23 -9 3 -8 9 5 22 9 10 17 25 17 34 0 10 9 23 20 30 27 17 25 32 -5 32
-14 0 -25 5 -25 10 0 6 6 10 13 10 8 0 20 11 27 25 11 21 11 29 0 51 -11 20
-11 29 -2 44 6 11 12 41 13 68 2 48 3 50 40 61 l38 11 -24 24 c-13 13 -38 27
-54 31 -32 7 -54 27 -57 53 -1 10 -7 49 -14 87 -6 39 -14 91 -17 118 -3 26
-10 47 -15 47 -5 0 -6 10 -2 23 4 12 7 54 5 92 -1 39 3 84 8 102 6 20 6 33 0
35 -6 2 -11 10 -12 18 -4 24 -17 40 -33 40 -8 0 -14 -3 -15 -7z m11 -235 c0
-7 -5 -20 -10 -28 -8 -12 -10 -9 -10 13 0 15 5 27 10 27 6 0 10 -6 10 -12z
m10 -100 c0 -37 -19 -112 -26 -105 -8 8 8 137 17 137 5 0 9 -15 9 -32z"/>
<path d="M880 10112 c0 -15 9 -21 47 -26 62 -8 79 9 24 24 -23 6 -49 14 -57
17 -9 3 -14 -2 -14 -15z"/>
<path d="M0 10110 c0 -5 10 -10 23 -10 18 0 19 2 7 10 -19 13 -30 13 -30 0z"/>
<path d="M7870 9840 c0 -5 5 -10 10 -10 6 0 10 5 10 10 0 6 -4 10 -10 10 -5 0
-10 -4 -10 -10z"/>
<path d="M7831 9804 c0 -11 3 -14 6 -6 3 7 2 16 -1 19 -3 4 -6 -2 -5 -13z"/>
<path d="M7860 9353 c1 -12 70 -118 70 -108 0 17 -53 115 -62 115 -4 0 -8 -3
-8 -7z"/>
<path d="M8584 9253 c-11 -10 -21 -29 -21 -42 -1 -13 -7 -27 -13 -31 -7 -5 -6
-11 5 -20 9 -7 15 -9 14 -4 -5 16 23 89 39 102 9 6 11 12 5 12 -5 0 -19 -8
-29 -17z"/>
<path d="M0 8980 l0 -200 40 0 40 0 -2 200 -2 200 -38 0 -38 0 0 -200z"/>
<path d="M8532 9055 c1 -46 8 -55 27 -32 8 10 7 22 -1 45 -17 45 -27 40 -26
-13z"/>
<path d="M8870 8951 c0 -4 -12 -9 -27 -9 -16 0 -35 -2 -43 -3 -8 -1 -22 2 -31
5 -10 4 -24 0 -35 -11 -17 -17 -14 -18 82 -24 359 -23 994 -36 994 -21 0 7
-18 13 -42 14 -24 0 -54 2 -68 3 -14 1 -171 5 -349 8 -202 4 -327 10 -331 16
-4 7 -18 7 -44 0 -26 -7 -41 -7 -45 0 -9 13 -61 33 -61 22z"/>
<path d="M10481 8933 c-1 -8 -16 -13 -41 -13 -22 0 -40 -4 -40 -10 0 -12 -67
-14 -74 -2 -6 11 -194 14 -210 4 -6 -4 -33 -7 -61 -7 -139 -1 -215 -6 -215
-15 0 -5 15 -11 33 -14 63 -11 612 -13 635 -3 15 7 22 19 22 39 0 33 -17 38
-23 6 -4 -23 -4 -23 -15 2 -6 14 -11 19 -11 13z m-161 -33 c0 -5 -6 -10 -14
-10 -8 0 -18 5 -21 10 -3 6 3 10 14 10 12 0 21 -4 21 -10z"/>
<path d="M5857 8905 c-4 -8 -2 -17 3 -20 6 -4 10 3 10 14 0 25 -6 27 -13 6z"/>
<path d="M8758 8868 c7 -7 12 -34 12 -60 0 -49 13 -61 38 -36 9 9 15 10 20 2
4 -6 14 -11 22 -11 8 -1 114 -4 235 -8 121 -4 285 -10 364 -14 147 -7 288 2
305 19 6 6 23 10 38 10 21 0 32 -7 40 -25 11 -24 16 -25 92 -26 45 -1 190 -3
323 -5 151 -2 244 0 248 6 3 6 22 10 41 10 29 0 34 3 34 23 0 54 -10 67 -50
67 -21 0 -40 4 -42 9 -2 5 -141 10 -313 10 -170 1 -328 2 -350 3 -107 3 -238
2 -431 -6 -150 -7 -220 -6 -243 2 -27 10 -35 8 -51 -8 -24 -24 -50 -26 -50 -5
0 10 -14 17 -40 21 -33 5 -38 9 -29 20 9 11 7 14 -10 14 -11 0 -21 -4 -21 -10
0 -5 -15 -9 -32 -9 l-33 1 30 8 c20 4 -2 7 -64 8 -72 1 -92 -1 -83 -10z m75
-5 c-7 -2 -21 -2 -30 0 -10 3 -4 5 12 5 17 0 24 -2 18 -5z m1701 -72 c3 -5 -1
-12 -10 -15 -20 -8 -29 -1 -19 13 8 13 22 14 29 2z m-614 -25 c0 -8 -5 -18
-10 -21 -13 -8 -42 14 -34 26 9 15 44 10 44 -5z m585 -16 c3 -5 -1 -10 -9 -10
-9 0 -16 5 -16 10 0 6 4 10 9 10 6 0 13 -4 16 -10z"/>
<path d="M8720 8806 c0 -21 -4 -26 -17 -22 -20 6 -51 -9 -40 -20 3 -4 13 -1
22 6 11 9 15 9 15 1 0 -7 10 -11 23 -9 17 2 21 9 19 28 -4 37 -22 50 -22 16z"/>
<path d="M5955 8730 c-4 -12 -5 -24 -2 -27 3 -2 8 5 12 17 4 12 5 24 2 27 -3
2 -8 -5 -12 -17z"/>
<path d="M5980 8696 c0 -31 6 -34 13 -6 3 11 1 23 -4 26 -5 3 -9 -6 -9 -20z"/>
<path d="M10208 8693 c6 -2 18 -2 25 0 6 3 1 5 -13 5 -14 0 -19 -2 -12 -5z"/>
<path d="M0 8500 l0 -120 25 0 c23 0 25 4 25 40 0 57 27 55 33 -2 l4 -43 1 43
c2 38 5 42 27 42 33 0 32 13 -5 43 -25 22 -30 33 -30 71 l0 46 -40 0 -40 0 0
-120z"/>
<path d="M10548 8430 c-4 -24 -5 -46 -3 -48 1 -2 27 -1 56 1 41 3 49 5 32 11
-13 5 -19 14 -16 22 4 10 -3 14 -25 14 -24 0 -31 5 -34 23 -2 14 -6 5 -10 -23z"/>
<path d="M7782 8400 c0 -14 2 -19 5 -12 2 6 2 18 0 25 -3 6 -5 1 -5 -13z"/>
<path d="M7831 8404 c0 -11 3 -14 6 -6 3 7 2 16 -1 19 -3 4 -6 -2 -5 -13z"/>
<path d="M8200 8396 c0 -9 7 -16 16 -16 9 0 14 5 12 12 -6 18 -28 21 -28 4z"/>
<path d="M7778 8319 c-2 -6 -2 -26 0 -44 3 -25 10 -35 27 -39 16 -4 26 -16 30
-36 4 -16 11 -32 16 -35 5 -4 9 -16 9 -28 0 -18 -2 -19 -10 -7 -7 11 -10 12
-10 2 0 -10 -13 -12 -55 -7 -53 7 -56 6 -91 -29 -51 -51 -63 -56 -141 -56 -56
0 -73 4 -91 20 -12 12 -22 16 -22 10 0 -5 -4 -10 -10 -10 -5 0 -10 7 -10 15 0
8 -4 15 -10 15 -5 0 -10 -7 -10 -15 0 -8 -4 -15 -10 -15 -5 0 -10 26 -10 58 0
31 -5 64 -10 72 -5 8 -10 11 -10 5 0 -5 -4 -3 -10 5 -6 9 -5 17 3 23 7 4 -1 4
-18 1 -35 -8 -54 -30 -55 -61 0 -12 -6 -23 -12 -26 -16 -5 -16 -89 0 -137 7
-19 32 -56 56 -83 41 -44 47 -47 93 -46 87 1 106 8 100 35 -5 28 14 32 34 8 7
-8 21 -13 31 -11 10 3 18 1 18 -5 0 -5 5 -6 10 -3 6 4 18 1 26 -6 13 -10 17
-10 25 2 7 10 11 11 17 2 13 -20 93 -29 106 -11 6 8 19 17 29 21 9 3 17 10 16
14 -4 22 3 33 20 33 27 0 75 103 67 145 -3 17 -8 45 -11 63 -8 53 -60 142 -83
142 -5 0 -12 7 -16 15 -6 18 -23 20 -28 4z"/>
<path d="M11645 8322 c-6 -4 -11 -20 -12 -35 0 -16 -4 -31 -8 -35 -4 -4 -243
-9 -532 -11 -435 -3 -527 -1 -534 10 -7 11 -9 11 -9 1 0 -10 -12 -12 -47 -8
l-48 6 42 -20 c24 -11 80 -30 125 -40 83 -20 112 -32 282 -110 85 -39 158 -64
361 -126 130 -40 311 -110 370 -143 28 -16 95 -48 150 -71 55 -23 183 -82 285
-132 237 -114 216 -105 280 -122 30 -8 68 -19 85 -26 52 -20 164 -40 226 -40
l59 0 0 80 c0 64 -3 80 -15 80 -8 0 -20 10 -26 22 -7 12 -31 47 -55 77 -24 31
-44 60 -44 65 0 4 -18 26 -41 47 -24 23 -41 49 -43 66 -2 15 -4 31 -5 34 0 4
-19 18 -41 33 -22 14 -40 34 -40 44 0 12 -2 14 -8 4 -7 -10 -14 -8 -34 8 -15
11 -31 20 -37 20 -6 0 -15 9 -21 20 -6 11 -16 20 -23 20 -7 0 -23 9 -35 20
-12 11 -26 20 -32 20 -6 0 -13 7 -16 15 -6 14 -110 80 -127 80 -4 0 -11 5 -15
10 -4 6 -27 17 -51 25 -24 8 -45 20 -48 27 -3 7 -12 13 -20 13 -8 0 -33 13
-56 30 -31 21 -61 32 -112 40 -83 12 -116 12 -130 2z"/>
<path d="M8340 8280 c-39 -8 -99 -59 -122 -104 -20 -38 -22 -60 -27 -346 -2
-168 -8 -291 -12 -275 -3 17 -7 48 -9 70 -1 30 -3 35 -9 21 -5 -13 -10 -16
-15 -8 -3 6 -13 9 -21 6 -8 -4 -18 1 -21 10 -3 9 -10 16 -16 16 -5 0 -26 8
-47 19 -28 13 -44 15 -56 8 -12 -6 -54 -7 -114 -2 -114 10 -176 8 -201 -5 -10
-6 -48 -10 -84 -10 -54 0 -75 -5 -123 -31 -32 -17 -66 -37 -77 -44 -10 -8 -24
-11 -31 -9 -7 3 -16 1 -20 -5 -3 -6 -16 -11 -29 -11 -13 0 -31 -9 -41 -20 -10
-11 -23 -20 -29 -20 -6 0 -26 -18 -43 -39 -31 -38 -33 -42 -27 -100 6 -52 10
-61 26 -61 17 0 20 6 17 43 -4 40 -2 43 18 39 15 -3 29 4 43 19 10 13 19 18
20 12 0 -9 19 -13 58 -13 58 -1 100 -19 87 -39 -3 -6 -14 -11 -23 -11 -9 0
-44 -18 -77 -40 -54 -36 -66 -40 -125 -40 -93 0 -142 -10 -147 -30 -5 -20 -37
-40 -72 -46 -14 -3 -27 -9 -29 -15 -4 -10 -81 -12 -106 -3 -9 3 -16 14 -16 23
0 9 -9 23 -20 31 -11 8 -20 21 -21 30 -1 28 -34 85 -49 85 -8 0 -19 10 -25 23
-5 12 -18 25 -28 28 -10 3 -27 20 -38 37 -10 18 -19 27 -19 20 0 -7 -17 -28
-37 -48 -27 -26 -39 -32 -45 -23 -5 8 -8 9 -8 2 0 -6 7 -17 15 -24 8 -7 15
-18 15 -24 0 -6 13 -37 29 -68 25 -49 28 -64 23 -105 l-7 -48 -23 85 c-27 102
-52 160 -69 160 -7 0 -13 9 -13 19 0 10 -8 29 -18 41 l-18 22 -26 -30 c-14
-17 -29 -28 -32 -25 -3 4 -6 -1 -6 -10 0 -10 -6 -17 -13 -17 -7 0 -23 -14 -37
-32 -45 -57 -185 -188 -223 -210 -10 -5 -21 -6 -27 -3 -17 11 -70 -46 -70 -76
0 -21 -7 -29 -29 -37 -15 -5 -49 -26 -75 -46 -26 -20 -53 -36 -59 -36 -7 0
-25 -7 -41 -15 -22 -12 -32 -12 -42 -4 -11 9 -14 6 -14 -17 0 -22 -3 -25 -12
-16 -18 18 -128 16 -128 -2 0 -7 14 -19 30 -26 37 -15 50 -37 50 -82 0 -26 -7
-39 -30 -56 -18 -14 -27 -28 -24 -37 4 -9 0 -15 -10 -15 -8 0 -32 -17 -53 -38
-68 -68 -117 -87 -163 -62 -14 8 -29 3 -66 -23 -51 -35 -80 -76 -31 -44 30 19
41 22 32 7 -10 -17 -85 -51 -103 -48 -21 3 -152 -61 -169 -83 -6 -8 -45 -36
-85 -62 -58 -37 -86 -63 -134 -129 -76 -103 -116 -175 -144 -259 -20 -59 -107
-237 -121 -249 -21 -16 -122 -250 -143 -330 -14 -52 -37 -119 -51 -147 -14
-29 -25 -57 -25 -62 0 -5 -11 -32 -25 -59 -14 -28 -25 -56 -25 -63 0 -15 -22
-82 -30 -89 -20 -19 -36 -68 -30 -90 9 -33 0 -62 -11 -34 -7 17 -8 17 -8 2 -1
-20 -21 -25 -21 -6 0 6 -3 8 -6 5 -4 -4 -2 -19 5 -34 9 -23 8 -38 -10 -83 -11
-30 -23 -65 -26 -78 -3 -13 -11 -21 -18 -18 -9 3 -11 -9 -7 -46 3 -36 1 -53
-9 -59 -9 -5 -16 -3 -21 9 -6 16 -7 15 -7 -1 -1 -10 4 -27 9 -38 10 -18 7 -19
-39 -19 -30 0 -51 5 -54 13 -2 7 -8 8 -13 3 -5 -5 -4 -11 4 -13 7 -3 12 -22
12 -44 0 -31 4 -39 19 -39 10 0 24 -7 31 -15 10 -12 7 -17 -15 -27 -21 -9 -28
-9 -34 1 -6 10 -10 10 -16 2 -5 -9 -10 -9 -21 0 -16 13 -44 -4 -44 -27 0 -10
-13 -14 -40 -14 l-40 0 0 -40 0 -40 -45 0 -45 0 0 40 c0 29 4 40 15 40 10 0
15 10 15 31 0 26 3 29 14 20 22 -18 29 15 9 39 -18 21 -43 27 -43 10 0 -5 -18
-10 -40 -10 -33 0 -40 3 -40 20 0 17 -7 20 -40 20 -36 0 -40 -2 -40 -25 0 -22
-4 -25 -40 -25 l-40 0 0 40 0 40 -40 0 -40 0 0 40 c0 36 3 40 25 40 31 0 32
11 4 36 -16 14 -23 15 -26 7 -3 -8 -21 -13 -44 -13 -21 0 -39 -4 -39 -10 0 -5
-18 -10 -40 -10 -26 0 -38 -4 -36 -12 1 -7 1 -10 -1 -5 -3 4 -22 7 -44 7 -39
0 -39 0 -39 40 l0 40 -120 0 -120 0 0 36 c0 36 23 73 35 54 11 -17 33 -11 40
10 4 12 1 28 -6 36 -10 13 -14 13 -30 -2 -16 -15 -19 -14 -31 5 -11 18 -22 21
-90 21 l-78 0 0 40 0 40 -40 0 -40 0 0 65 0 65 -40 0 -40 0 0 80 0 80 -80 0
-80 0 0 55 0 55 -40 0 -40 0 0 41 0 40 -77 -3 c-43 -1 -115 -2 -160 0 l-83 2
0 40 0 40 -40 0 -40 0 0 40 0 40 -40 0 -40 0 0 80 0 80 -40 0 -40 0 0 40 0 40
-80 0 -80 0 0 40 0 40 -40 0 -40 0 0 40 0 40 -120 0 -120 0 0 -40 c0 -23 -5
-40 -11 -40 -8 0 -9 24 -4 80 5 56 4 80 -4 80 -7 0 -11 28 -11 80 0 79 0 80
-25 80 -24 0 -25 3 -25 56 0 42 -5 60 -19 72 -18 16 -18 21 -3 141 14 115 14
124 -1 133 -21 11 -22 34 -1 42 9 3 36 6 60 6 32 0 44 4 44 15 0 11 12 15 43
16 23 1 46 0 52 -1 5 -1 114 -3 241 -5 128 -2 299 -10 380 -16 249 -20 301
-22 737 -33 115 -3 213 -8 218 -11 14 -9 249 -14 249 -5 0 13 -51 21 -190 30
-146 9 -453 33 -645 50 -66 6 -183 15 -260 20 -77 6 -237 18 -355 28 -118 10
-226 19 -240 19 -14 0 -68 5 -120 11 -52 7 -134 15 -182 18 -49 3 -88 10 -88
15 0 5 12 9 28 9 26 1 26 1 8 15 -10 8 -24 16 -29 18 -7 2 -10 46 -8 120 2
114 1 117 -20 117 -19 0 -21 4 -16 37 4 21 11 39 17 41 5 2 10 21 10 43 0 32
-3 39 -20 39 -18 0 -20 7 -20 80 l0 80 -35 0 -35 0 0 -48 c0 -44 -12 -72 -32
-72 -4 0 -6 26 -4 58 2 31 1 40 -1 20 -4 -37 -5 -38 -45 -38 l-40 0 4 -77 c3
-43 3 -61 1 -40 -4 36 -5 37 -44 37 -39 0 -39 0 -39 40 l0 40 -240 0 -240 0 0
40 0 40 -117 -4 c-65 -2 -83 -1 -40 1 l77 4 0 39 c0 40 0 40 -40 40 l-40 0 0
40 0 40 -80 0 -80 0 0 40 0 40 -40 0 -40 0 0 40 c0 29 4 40 15 40 11 0 15 11
15 40 0 36 3 40 25 40 25 0 25 1 25 80 0 79 0 80 -25 80 -22 0 -25 4 -25 40
l0 40 -55 0 -55 0 0 -3990 0 -3990 7200 0 7200 0 0 1695 0 1695 -40 0 c-29 0
-40 4 -40 15 0 11 -11 15 -40 15 l-40 0 0 -40 0 -40 -85 0 -85 0 0 80 c0 73 2
80 20 80 23 0 26 13 6 29 -11 9 -15 9 -19 -1 -4 -9 -15 -3 -36 19 -17 18 -35
33 -39 33 -5 0 -8 24 -6 53 1 28 0 46 -3 40 -2 -7 -9 -13 -13 -13 -12 0 0 73
13 82 8 4 8 14 0 30 -5 13 -11 55 -12 93 -2 90 -8 139 -28 234 -24 121 -22
149 15 203 42 61 89 178 101 248 15 91 13 278 -3 363 -17 90 -51 156 -115 231
-49 56 -196 182 -239 205 -36 18 -42 29 -42 73 0 46 -71 187 -120 238 -65 68
-351 240 -398 240 -30 0 -15 253 27 475 17 88 36 201 42 250 12 94 19 533 7
493 -3 -13 -6 -35 -7 -50 -1 -16 -5 -28 -10 -28 -4 0 -6 -24 -4 -52 2 -36 0
-46 -5 -33 -9 19 -9 19 -22 -2 -8 -11 -20 -19 -27 -16 -9 3 -11 0 -7 -10 3 -9
-3 -21 -15 -29 -11 -8 -23 -27 -27 -43 -10 -40 -33 -75 -50 -75 -8 0 -14 -4
-14 -10 0 -5 -20 -10 -44 -10 -40 0 -47 4 -66 35 -26 42 -66 65 -115 65 -34 0
-35 -1 -35 -40 0 -22 4 -40 8 -40 13 0 36 -74 24 -78 -6 -2 -2 -30 10 -76 23
-82 19 -166 -8 -166 -8 0 -14 -6 -14 -13 0 -8 -11 -19 -26 -25 -14 -7 -32 -28
-40 -47 -8 -19 -18 -35 -22 -35 -5 0 -16 -15 -25 -34 -14 -29 -23 -36 -69 -45
-36 -8 -54 -9 -56 -1 -2 5 -12 10 -23 10 -11 0 -30 10 -43 23 -16 16 -29 21
-42 16 -10 -4 -13 -8 -6 -8 19 -1 16 -81 -3 -81 -8 0 -15 -4 -15 -9 0 -5 8 -8
17 -7 29 2 28 -33 -2 -44 -14 -5 -28 -16 -31 -25 -3 -8 -10 -12 -15 -9 -5 3
-9 -11 -9 -30 0 -20 -4 -36 -10 -36 -5 0 -10 -6 -10 -12 0 -7 -18 -22 -40 -32
-22 -11 -46 -29 -54 -42 -33 -50 -196 -37 -196 16 0 24 -8 29 -51 30 -81 2
-169 -14 -169 -31 0 -5 -4 -9 -10 -9 -5 0 -10 7 -10 16 0 13 -7 15 -37 9 -21
-4 -39 -11 -41 -16 -7 -18 -93 -10 -119 11 -14 11 -34 20 -44 20 -10 0 -24 9
-31 20 -7 11 -21 20 -30 20 -10 0 -18 4 -18 9 0 12 -59 71 -71 71 -16 0 -9 34
14 62 19 24 35 29 132 43 61 8 119 15 130 15 88 0 110 2 115 10 3 4 22 11 44
15 27 5 34 10 24 16 -8 6 -1 7 18 3 30 -6 32 -5 36 32 3 26 0 42 -8 47 -7 4
-19 13 -26 20 -7 7 -29 14 -48 16 -19 1 -36 7 -38 12 -2 5 -9 9 -15 9 -6 0
-20 9 -32 20 -12 11 -49 26 -81 33 -66 14 -87 24 -79 38 4 5 -5 9 -18 9 -15 0
-31 10 -41 25 -9 14 -29 28 -44 31 -15 4 -31 10 -37 14 -13 10 -73 19 -165 26
-80 6 -102 16 -82 36 7 7 12 19 12 28 0 21 -41 60 -62 60 -9 0 -25 11 -36 24
-12 16 -26 23 -38 20 -26 -7 -54 42 -55 98 -1 40 -2 38 -17 -29 -15 -67 -18
-73 -41 -73 -14 0 -33 -5 -41 -10 -13 -8 -13 -10 1 -10 9 0 19 -8 22 -18 4
-16 42 -33 82 -36 6 -1 17 -10 27 -21 9 -12 39 -27 68 -34 37 -10 50 -17 48
-29 -2 -13 -14 -16 -58 -13 -30 1 -66 8 -80 15 -91 48 -117 63 -131 79 -9 9
-24 17 -33 17 -9 0 -16 8 -16 20 0 22 -15 27 -24 8 -3 -7 -4 -4 -3 7 2 16 -7
21 -45 30 -25 5 -50 13 -54 18 -4 4 -20 7 -36 7 -16 0 -31 6 -34 15 -4 9 -19
15 -35 15 -16 0 -29 4 -29 9 0 5 -12 11 -27 14 -16 3 -50 16 -78 28 -27 12
-55 21 -62 20 -6 -1 -14 7 -17 17 -4 11 -22 28 -41 38 -19 10 -35 22 -35 25 0
4 -37 8 -82 8 -46 1 -108 8 -138 16 -30 8 -73 15 -96 15 -22 0 -66 5 -98 12
-46 9 -62 18 -82 43 -23 30 -24 40 -21 115 4 73 7 85 28 101 13 10 18 19 11
19 -20 0 -6 16 45 51 40 28 54 32 107 31 60 -1 128 -21 141 -42 3 -5 20 -10
36 -10 17 0 39 -5 51 -11 11 -6 32 -13 46 -15 15 -3 57 -16 95 -30 37 -14 89
-32 115 -40 64 -18 151 -50 159 -58 3 -3 14 -6 24 -6 10 0 33 -6 51 -14 18 -8
67 -21 110 -31 46 -10 83 -24 94 -36 9 -10 23 -19 31 -19 7 0 13 -4 13 -10 0
-5 6 -10 13 -10 6 0 77 -20 157 -45 219 -69 270 -84 325 -91 92 -11 100 -13
175 -31 68 -17 97 -17 313 -9 130 5 237 13 237 18 0 4 7 8 16 8 23 0 11 23
-20 38 -15 8 -30 20 -33 28 -3 8 -18 14 -33 14 -16 0 -45 8 -67 19 -21 10 -71
28 -110 41 -40 13 -73 27 -73 32 0 4 -5 8 -12 8 -18 0 -167 59 -231 92 -32 16
-64 27 -72 24 -8 -3 -12 0 -9 7 4 12 -204 97 -237 97 -9 0 -22 7 -29 15 -7 8
-46 32 -86 52 -41 20 -79 42 -85 50 -6 7 -20 13 -30 13 -10 0 -21 5 -24 10 -3
6 -14 10 -24 10 -10 0 -30 9 -45 21 -14 11 -38 24 -53 29 -70 22 -103 37 -96
44 4 4 -2 9 -14 12 -12 3 -24 12 -27 20 -3 8 -15 14 -26 14 -11 0 -20 4 -20 9
0 5 -15 15 -34 21 -19 6 -42 22 -50 36 -9 13 -25 24 -36 24 -10 0 -21 4 -24 8
-3 5 -26 9 -52 11 -26 1 -55 6 -65 12 -10 5 -31 9 -48 9 -17 0 -31 4 -31 9 0
8 -123 52 -138 49 -4 -1 -20 4 -35 10 -16 7 -34 12 -40 12 -46 0 -117 93 -117
152 0 69 72 185 136 218 16 8 35 21 43 28 12 11 8 13 -20 8 -19 -3 -297 -8
-619 -12 -822 -9 -880 -10 -887 -17 -3 -4 0 -13 7 -22 15 -18 6 -45 -15 -45
-10 0 -15 10 -15 34 0 30 -4 34 -31 40 -17 3 -44 6 -60 6 -16 0 -71 11 -122
25 -97 26 -166 34 -207 25z m890 -344 c0 -39 -11 -50 -40 -41 -21 7 -18 27 8
58 23 26 32 21 32 -17z m-2630 -542 c0 -8 -4 -12 -10 -9 -5 3 -10 10 -10 16 0
5 5 9 10 9 6 0 10 -7 10 -16z m1288 -89 c23 -5 32 -12 32 -26 0 -10 6 -19 14
-19 9 0 18 -18 24 -47 6 -26 10 -48 9 -49 -1 0 -24 -15 -52 -33 -27 -19 -54
-34 -60 -35 -5 -1 -26 -10 -45 -20 -22 -12 -65 -20 -122 -24 -65 -3 -88 -8
-88 -18 0 -10 -14 -14 -42 -15 -120 -3 -217 -4 -208 -1 18 6 10 32 -10 32 -35
0 -41 32 -18 83 17 36 27 47 44 47 13 0 25 8 28 18 8 25 63 55 116 63 25 3 81
14 125 22 119 24 188 35 205 31 8 -1 30 -5 48 -9z m-7185 -212 c-13 -2 -33 -2
-45 0 -13 2 -3 4 22 4 25 0 35 -2 23 -4z m6597 -43 c0 -5 12 -10 28 -11 26 0
26 -1 5 -11 -17 -8 -25 -7 -37 5 -18 18 -20 27 -6 27 6 0 10 -4 10 -10z
m-1512 -322 c-6 -18 -28 -21 -28 -4 0 9 7 16 16 16 9 0 14 -5 12 -12z m-75
-47 c-3 -11 -11 -22 -18 -25 -10 -3 -10 2 -2 24 12 31 28 32 20 1z m-4996 -57
c-3 -3 -12 -4 -19 -1 -8 3 -5 6 6 6 11 1 17 -2 13 -5z m417 -70 c9 -9 16 -32
16 -55 l0 -39 -95 0 -95 0 0 40 0 40 40 0 c29 0 40 4 40 15 0 21 73 20 94 -1z
m143 -76 c-2 -13 -4 -3 -4 22 0 25 2 35 4 23 2 -13 2 -33 0 -45z m-400 -160
c-2 -13 -4 -3 -4 22 0 25 2 35 4 23 2 -13 2 -33 0 -45z m293 22 c0 -36 -2 -40
-25 -40 -22 0 -25 -4 -25 -40 l0 -40 40 0 40 0 0 42 c0 23 3 39 6 35 3 -3 3
-40 -1 -81 l-7 -76 -79 0 -79 0 0 80 0 80 40 0 40 0 0 40 c0 36 3 40 25 40 23
0 25 -4 25 -40z m117 -22 c-2 -13 -4 -3 -4 22 0 25 2 35 4 23 2 -13 2 -33 0
-45z m9523 25 c0 -26 -1 -26 -14 -8 -14 20 -12 35 5 35 5 0 9 -12 9 -27z m163
17 c14 0 7 -38 -9 -44 -25 -10 -41 -6 -19 5 15 7 6 8 -32 6 -50 -4 -53 -3 -53
19 0 21 3 23 53 19 28 -2 55 -4 60 -5z m1527 -110 c0 -5 -4 -10 -10 -10 -5 0
-10 5 -10 10 0 6 5 10 10 10 6 0 10 -4 10 -10z m-4953 -14 c-5 -12 9 -16 64
-22 38 -4 69 -10 69 -15 0 -5 15 -23 33 -40 31 -31 31 -32 7 -26 -23 6 -24 5
-6 -8 12 -9 25 -11 34 -6 17 10 52 3 52 -10 0 -5 -11 -7 -24 -3 -14 3 -33 1
-43 -5 -16 -9 -14 -11 12 -11 17 -1 24 -4 16 -7 -8 -3 -29 -16 -48 -29 -74
-50 -254 -94 -381 -93 -210 1 -325 35 -408 120 -38 39 -38 64 -1 54 16 -5 18
-4 8 3 -19 14 24 42 65 42 42 0 147 21 159 31 5 5 17 9 27 9 10 0 18 4 18 10
0 10 66 15 239 18 95 2 112 0 108 -12z m3845 -356 c40 -11 84 -20 98 -20 14
-1 43 -16 64 -34 l39 -34 -17 -75 c-19 -82 -18 -95 20 -224 29 -96 87 -200
145 -260 36 -37 39 -44 27 -62 -7 -12 -17 -21 -23 -21 -5 0 -27 26 -47 58 -20
31 -57 81 -82 110 -25 30 -46 58 -46 63 0 16 -66 98 -131 164 -72 74 -80 80
-125 107 -28 16 -34 25 -29 42 3 12 8 63 12 114 3 50 10 92 15 92 4 0 41 -9
80 -20z m-8825 -842 c-2 -13 -4 -3 -4 22 0 25 2 35 4 23 2 -13 2 -33 0 -45z
m293 -345 c0 -5 -5 -15 -10 -23 -9 -13 -11 -13 -20 0 -15 22 -12 30 10 30 11
0 20 -3 20 -7z m100 -83 c0 -5 -4 -10 -10 -10 -5 0 -10 5 -10 10 0 6 5 10 10
10 6 0 10 -4 10 -10z m70 5 c0 -11 -24 -55 -30 -55 -6 0 -30 44 -30 55 0 3 14
5 30 5 17 0 30 -2 30 -5z m-7 -152 c-13 -2 -33 -2 -45 0 -13 2 -3 4 22 4 25 0
35 -2 23 -4z m1164 -35 c-3 -8 -6 -5 -6 6 -1 11 2 17 5 13 3 -3 4 -12 1 -19z
m-7 -61 c0 -5 -4 -5 -10 -2 -5 3 -10 14 -10 23 0 15 2 15 10 2 5 -8 10 -19 10
-23z m-580 -47 c0 -13 -7 -20 -20 -20 -23 0 -26 10 -8 28 18 18 28 15 28 -8z
m3730 -21 c14 -5 35 -24 47 -41 24 -34 23 -49 -1 -29 -13 11 -14 9 -10 -14 4
-23 3 -25 -16 -15 -15 8 -27 7 -51 -5 -44 -23 -75 -17 -71 15 2 14 9 31 14 38
6 7 8 15 4 19 -9 9 -57 -18 -50 -29 6 -9 -20 -11 -29 -1 -4 3 -1 13 6 21 11
13 9 14 -11 1 -12 -8 -27 -28 -32 -45 -11 -31 -13 -33 -87 -49 -7 -2 -15 1
-19 6 -3 5 0 9 5 9 6 0 11 4 11 9 0 5 -20 -1 -44 -13 -28 -13 -40 -24 -32 -29
6 -5 1 -6 -11 -2 -13 4 -23 2 -23 -3 0 -21 -43 -106 -47 -94 -3 6 -14 12 -24
12 -11 0 -18 -4 -14 -9 3 -5 -21 -12 -52 -16 -88 -9 -144 -33 -187 -79 -22
-22 -43 -41 -48 -41 -4 0 -8 -4 -9 -10 -1 -15 -41 -55 -56 -55 -7 0 -13 -4
-13 -9 0 -15 -89 -98 -122 -114 -17 -8 -37 -13 -45 -10 -8 3 -13 -2 -13 -15 0
-12 -10 -28 -22 -37 -22 -16 -22 -17 -2 -11 16 5 23 1 27 -14 9 -34 -3 -61
-24 -55 -13 4 -19 1 -19 -9 0 -9 -4 -16 -10 -16 -5 0 -10 -9 -10 -20 0 -11 -6
-20 -13 -20 -8 0 -19 -11 -25 -24 -7 -16 -22 -25 -49 -29 -35 -6 -41 -4 -68
28 -17 19 -36 35 -42 35 -6 0 -21 12 -32 26 -16 21 -23 23 -40 15 -32 -17 -48
-13 -53 14 -9 46 2 75 28 75 17 0 31 12 49 41 15 22 24 46 22 52 -6 18 12 47
28 47 8 0 15 4 15 8 0 12 168 136 219 162 24 12 52 19 62 17 11 -3 17 -1 14 4
-3 4 9 16 27 25 18 9 45 26 60 37 15 11 31 16 39 12 7 -5 10 -4 6 2 -7 11 102
77 112 67 3 -3 -2 -11 -12 -18 -9 -7 -17 -19 -17 -27 0 -12 -2 -12 -9 0 -5 7
-14 10 -20 7 -8 -5 -8 -11 1 -20 17 -18 82 -6 86 17 2 9 -1 17 -7 17 -6 0 -11
8 -11 18 0 22 69 57 84 42 7 -7 5 -10 -5 -10 -11 0 -14 -8 -11 -29 4 -29 23
-41 66 -41 24 0 222 87 261 115 45 33 92 55 180 86 78 28 92 28 145 8z m-3215
-79 c3 -5 1 -10 -4 -10 -6 0 -11 5 -11 10 0 6 2 10 4 10 3 0 8 -4 11 -10z m5
-45 c0 -8 -4 -15 -10 -15 -5 0 -10 7 -10 15 0 8 5 15 10 15 6 0 10 -7 10 -15z
m-33 -17 c-3 -8 -6 -5 -6 6 -1 11 2 17 5 13 3 -3 4 -12 1 -19z m2943 -8 c18
-12 2 -12 -25 0 -13 6 -15 9 -5 9 8 0 22 -4 30 -9z m-425 -59 c-3 -6 -11 -8
-17 -5 -6 4 -5 9 3 15 16 10 23 4 14 -10z m-637 -373 c-3 -7 -13 -15 -24 -17
-16 -3 -17 -1 -5 13 16 19 34 21 29 4z m-96 -90 c-7 -7 -12 -8 -12 -2 0 14 12
26 19 19 2 -3 -1 -11 -7 -17z m8118 -9 c0 -10 -4 -19 -10 -19 -5 0 -10 12 -10
26 0 14 4 23 10 19 6 -3 10 -15 10 -26z m-11300 11 c0 -5 -4 -10 -10 -10 -5 0
-10 5 -10 10 0 6 5 10 10 10 6 0 10 -4 10 -10z m3124 -24 c-5 -13 -34 -31 -34
-21 0 5 30 35 35 35 3 0 2 -6 -1 -14z m-3196 -23 c-4 -22 -22 -20 -26 1 -2 10
3 16 13 16 10 0 15 -7 13 -17z m2727 -123 c0 -38 -39 -35 -43 3 -3 25 0 28 20
25 17 -2 23 -9 23 -28z m30 10 c3 -5 1 -10 -4 -10 -6 0 -11 5 -11 10 0 6 2 10
4 10 3 0 8 -4 11 -10z m8622 -22 c-3 -7 -5 -2 -5 12 0 14 2 19 5 13 2 -7 2
-19 0 -25z m-44 7 c-3 -9 -8 -14 -10 -11 -3 3 -2 9 2 15 9 16 15 13 8 -4z m44
-77 c-3 -8 -6 -5 -6 6 -1 11 2 17 5 13 3 -3 4 -12 1 -19z m-8737 -45 c0 -5
-10 -24 -22 -43 -45 -75 -58 -102 -53 -111 4 -5 -1 -12 -10 -15 -10 -4 -13
-13 -9 -27 5 -17 3 -19 -15 -14 -14 3 -21 0 -21 -9 0 -8 5 -14 10 -14 6 0 10
-9 10 -20 0 -24 -13 -26 -34 -5 -17 17 -36 20 -36 5 0 -5 -9 -10 -20 -10 -13
0 -20 -7 -20 -20 0 -11 -4 -20 -9 -20 -8 0 -2 33 27 140 17 61 69 124 99 118
10 -2 23 0 28 4 6 5 21 17 35 28 26 20 40 25 40 13z m1086 -70 c-3 -8 2 -13
14 -13 28 0 34 -17 10 -30 -16 -8 -25 -8 -35 0 -9 8 -14 8 -17 0 -2 -7 -15 -6
-39 4 -63 26 -60 62 6 68 44 3 69 -8 61 -29z m7551 5 c-3 -8 -6 -5 -6 6 -1 11
2 17 5 13 3 -3 4 -12 1 -19z m-6617 -34 c0 -24 -4 -34 -12 -31 -7 2 -11 11 -9
18 2 8 4 22 5 32 1 33 16 16 16 -19z m6581 -77 c-10 -9 -11 -8 -5 6 3 10 9 15
12 12 3 -3 0 -11 -7 -18z m-6908 -114 c-7 -2 -21 -2 -30 0 -10 3 -4 5 12 5 17
0 24 -2 18 -5z m-1921 -52 c2 -17 1 -28 -4 -25 -8 5 -12 54 -4 54 2 0 6 -13 8
-29z m-15 -63 c-3 -7 -5 -2 -5 12 0 14 2 19 5 13 2 -7 2 -19 0 -25z m5041 -46
c2 -30 -3 -54 -18 -79 -20 -34 -25 -84 -18 -188 6 -76 1 -156 -10 -167 -9 -9
-9 -15 0 -26 9 -11 9 -13 -3 -11 -7 2 -23 -2 -34 -8 -12 -6 -57 -21 -100 -32
-44 -11 -105 -30 -135 -42 -97 -38 -108 -40 -103 -18 3 10 1 19 -5 19 -10 0
-26 -29 -24 -42 1 -5 -2 -8 -7 -8 -5 0 -76 -11 -157 -24 -82 -14 -178 -28
-214 -32 -65 -6 -169 -35 -290 -80 -119 -44 -305 -102 -345 -108 -265 -39
-349 -57 -445 -91 -50 -18 -180 -82 -194 -96 -17 -16 -29 -10 -15 8 12 15 12
16 -4 10 -17 -6 -18 0 -13 111 3 64 5 119 6 122 0 3 6 -5 14 -18 l12 -23 32
32 c18 18 33 43 33 56 3 45 7 79 18 123 5 25 10 62 11 83 0 30 5 40 24 48 27
13 46 48 46 85 0 22 2 23 20 14 16 -9 20 -8 20 5 0 10 10 15 33 15 19 0 49 7
67 17 18 9 49 16 67 15 19 -1 31 2 29 7 -8 12 33 22 59 15 13 -3 27 1 34 10 8
9 23 16 35 16 12 0 26 4 32 10 5 5 23 12 39 14 17 2 59 13 95 25 36 11 85 23
110 27 50 7 198 51 215 63 5 4 51 13 100 20 50 6 110 16 135 22 25 5 79 14
120 20 41 5 107 14 145 20 39 5 111 14 161 18 51 5 98 12 105 17 8 5 19 9 24
11 137 29 159 31 171 16 13 -19 44 -11 44 12 0 17 35 35 60 32 10 -1 16 -16
18 -45z m-3629 -421 c-18 -93 -21 -95 -71 -59 -18 12 -27 26 -24 36 3 10 10
36 17 60 15 50 36 73 49 52 7 -12 10 -12 15 2 5 13 10 14 19 6 9 -9 8 -30 -5
-97z m-104 3 c-7 -37 -20 -42 -72 -23 -27 9 -30 13 -24 42 6 29 10 32 49 35
23 2 43 9 43 15 1 7 4 1 6 -12 3 -13 2 -39 -2 -57z m1622 -141 c-2 -16 -4 -3
-4 27 0 30 2 43 4 28 2 -16 2 -40 0 -55z"/>
<path d="M10893 6343 c9 -2 23 -2 30 0 6 3 -1 5 -18 5 -16 0 -22 -2 -12 -5z"/>
<path d="M6517 4069 c7 -7 15 -10 18 -7 3 3 -2 9 -12 12 -14 6 -15 5 -6 -5z"/>
<path d="M6235 3930 c-3 -6 1 -7 9 -4 18 7 21 14 7 14 -6 0 -13 -4 -16 -10z"/>
<path d="M6372 3932 c-13 -2 -26 -10 -29 -18 -3 -8 -13 -14 -23 -14 -17 0 -47
-26 -39 -35 7 -6 105 41 114 55 9 15 5 17 -23 12z"/>
<path d="M9696 2341 c-4 -5 3 -7 14 -4 23 6 26 13 6 13 -8 0 -17 -4 -20 -9z"/>
<path d="M6248 2503 c6 -2 18 -2 25 0 6 3 1 5 -13 5 -14 0 -19 -2 -12 -5z"/>
<path d="M6527 8265 c-4 -8 -2 -17 3 -20 6 -4 10 3 10 14 0 25 -6 27 -13 6z"/>
<path d="M10398 8258 c6 -6 18 -8 28 -6 14 3 12 5 -9 10 -19 3 -25 2 -19 -4z"/>
<path d="M0 8180 c0 -29 4 -40 15 -40 11 0 15 11 15 40 0 29 -4 40 -15 40 -11
0 -15 -11 -15 -40z"/>
<path d="M7645 7841 c3 -5 1 -12 -5 -16 -5 -3 -10 -10 -10 -16 0 -12 27 -12
34 0 8 12 -4 41 -16 41 -5 0 -7 -4 -3 -9z"/>
<path d="M6422 7598 c1 -17 7 -24 15 -21 11 4 11 9 1 22 -7 9 -14 18 -15 20
-2 3 -2 -7 -1 -21z"/>
<path d="M6381 7591 c-9 -16 -8 -18 9 -14 21 6 26 18 11 28 -6 3 -15 -3 -20
-14z"/>
<path d="M6430 7550 c-20 -20 -42 -69 -35 -80 3 -4 -2 -13 -10 -20 -8 -7 -15
-17 -15 -22 0 -8 87 49 95 62 1 3 -3 21 -9 40 -10 32 -13 34 -26 20z m-3 -66
c-3 -3 -12 -4 -19 -1 -8 3 -5 6 6 6 11 1 17 -2 13 -5z"/>
<path d="M11680 7525 c0 -17 5 -25 13 -22 6 2 12 12 12 22 0 10 -6 20 -12 23
-8 2 -13 -6 -13 -23z"/>
<path d="M6545 7450 c3 -5 8 -10 11 -10 2 0 4 5 4 10 0 6 -5 10 -11 10 -5 0
-7 -4 -4 -10z"/>
<path d="M4540 7330 c0 -5 10 -10 23 -10 18 0 19 2 7 10 -19 13 -30 13 -30 0z"/>
<path d="M9880 7152 c0 -5 7 -13 16 -16 10 -4 14 -1 12 6 -5 15 -28 23 -28 10z"/>
<path d="M9963 7153 c-62 -6 -53 -23 11 -23 55 0 80 12 50 24 -9 3 -16 5 -17
4 -1 -1 -21 -3 -44 -5z"/>
<path d="M11193 6939 c-4 -13 -13 -20 -27 -18 -39 3 -46 -1 -46 -24 0 -14 12
-32 30 -45 16 -12 32 -33 36 -47 5 -20 9 -23 24 -15 27 14 46 12 65 -6 13 -14
29 -16 87 -10 40 3 77 11 85 17 18 15 17 49 -2 49 -8 0 -24 18 -35 39 l-20 40
-72 -1 c-62 0 -74 3 -89 21 -22 26 -29 26 -36 0z"/>
<path d="M1368 6773 c7 -3 16 -2 19 1 4 3 -2 6 -13 5 -11 0 -14 -3 -6 -6z"/>
<path d="M3520 6551 c0 -12 36 -22 103 -27 33 -2 57 1 57 6 0 6 -15 10 -34 10
-19 0 -38 5 -41 10 -8 12 -85 13 -85 1z"/>
<path d="M3690 6526 c0 -9 3 -16 8 -17 45 -6 302 -5 302 0 0 5 -46 11 -102 14
-57 4 -127 10 -155 13 -45 6 -53 4 -53 -10z"/>
<path d="M4048 6503 c6 -2 18 -2 25 0 6 3 1 5 -13 5 -14 0 -19 -2 -12 -5z"/>
<path d="M4203 6493 c15 -2 37 -2 50 0 12 2 0 4 -28 4 -27 0 -38 -2 -22 -4z"/>
<path d="M4338 6483 c12 -2 32 -2 45 0 12 2 2 4 -23 4 -25 0 -35 -2 -22 -4z"/>
<path d="M2080 5620 c0 -29 4 -40 15 -40 11 0 15 11 15 40 0 29 -4 40 -15 40
-11 0 -15 -11 -15 -40z"/>
<path d="M3600 5000 c0 -11 5 -20 10 -20 6 0 10 9 10 20 0 11 -4 20 -10 20 -5
0 -10 -9 -10 -20z"/>
<path d="M3580 4950 c0 -5 5 -10 10 -10 6 0 10 5 10 10 0 6 -4 10 -10 10 -5 0
-10 -4 -10 -10z"/>
<path d="M3520 4815 c0 -14 4 -25 9 -25 12 0 19 21 13 38 -8 21 -22 13 -22
-13z"/>
<path d="M3585 4790 c-3 -5 -1 -10 4 -10 6 0 11 5 11 10 0 6 -2 10 -4 10 -3 0
-8 -4 -11 -10z"/>
<path d="M3378 4783 c12 -2 32 -2 45 0 12 2 2 4 -23 4 -25 0 -35 -2 -22 -4z"/>
<path d="M4244 4770 c0 -13 4 -16 10 -10 7 7 7 13 0 20 -6 6 -10 3 -10 -10z"/>
<path d="M3804 4766 c-19 -21 -14 -66 6 -66 17 0 30 26 30 63 0 20 -20 22 -36
3z"/>
<path d="M3755 4747 c-4 -14 -5 -32 -2 -39 3 -7 6 -3 6 9 1 12 7 23 14 26 9 3
9 7 0 17 -9 10 -13 8 -18 -13z"/>
<path d="M3891 4714 c0 -11 3 -14 6 -6 3 7 2 16 -1 19 -3 4 -6 -2 -5 -13z"/>
<path d="M3390 4661 c0 -29 -5 -41 -17 -44 -10 -3 1 -5 25 -6 l42 -1 0 45 c0
41 -2 45 -25 45 -22 0 -25 -4 -25 -39z"/>
<path d="M3520 4660 c0 -29 4 -40 15 -40 11 0 15 11 15 40 0 29 -4 40 -15 40
-11 0 -15 -11 -15 -40z"/>
<path d="M4180 4671 c0 -6 5 -13 10 -16 6 -3 10 1 10 9 0 9 -4 16 -10 16 -5 0
-10 -4 -10 -9z"/>
<path d="M3812 4599 c-28 -11 -25 -29 6 -40 20 -7 22 -5 22 21 0 17 -1 30 -2
29 -2 0 -14 -4 -26 -10z"/>
<path d="M4176 4535 c4 -8 8 -15 10 -15 2 0 4 7 4 15 0 8 -4 15 -10 15 -5 0
-7 -7 -4 -15z"/>
<path d="M3938 4463 c12 -2 32 -2 45 0 12 2 2 4 -23 4 -25 0 -35 -2 -22 -4z"/>
</g>
</svg>
